Coordinates
version=1
nRows=9
nColumns=24
inDegrees=yes

Units are S.I. units (second, meters, Newtons, ...)
Angles are in degrees.

endheader
time	pelvis_tilt	pelvis_list	pelvis_rotation	pelvis_tx	pelvis_ty	pelvis_tz	hip_flexion_r	hip_adduction_r	hip_rotation_r	knee_angle_r	ankle_angle_r	subtalar_angle_r	mtp_angle_r	hip_flexion_l	hip_adduction_l	hip_rotation_l	knee_angle_l	ankle_angle_l	subtalar_angle_l	mtp_angle_l	lumbar_extension	lumbar_bending	lumbar_rotation
      3.87500000	     -8.79412922	     -9.47728520	      2.80990756	     -0.81916977	     -0.02314271	      0.63891573	     16.34825468	     12.76674977	     -6.14637530	    -15.99543318	      2.55488354	     -4.03502911	      6.68120331	     27.56706910	    -17.20972518	    -11.18882834	    -69.48607136	     -5.93740296	      9.41577489	      7.62814183	      5.74232437	     11.37868160	     -1.57425109
      3.88000000	     -8.79881590	     -9.15799981	      2.35642535	     -0.81246149	     -0.02216649	      0.63950327	     15.52260291	     12.65827991	     -5.45667896	    -15.47959686	      2.68264078	     -4.07314123	      6.55392701	     28.30843627	    -16.94900594	    -11.57842965	    -69.15532921	     -5.67211855	      9.69185446	      7.68160905	      5.64776925	     11.10550110	     -0.95585378
      3.88500000	     -8.77303272	     -8.84396914	      1.86762735	     -0.80576939	     -0.02123460	      0.64011922	     14.66073738	     12.55714764	     -4.65454473	    -14.95878726	      2.79582746	     -4.18153604	      6.37020148	     28.98766363	    -16.72517951	    -12.04141391	    -68.75663206	     -5.42385274	      9.84861263	      7.63261272	      5.51193780	     10.84572359	     -0.30607970
      3.89000000	     -8.74229270	     -8.54235596	      1.39115746	     -0.79909208	     -0.02038363	      0.64071433	     13.80779053	     12.44654201	     -3.87946759	    -14.45188543	      2.90864468	     -4.28879614	      6.16824684	     29.65337441	    -16.51303229	    -12.49690233	    -68.29442860	     -5.16182194	      9.98690840	      7.50602678	      5.37448864	     10.59761750	      0.32586350
      3.89500000	     -8.67540783	     -8.29030343	      0.92012625	     -0.79245522	     -0.01960995	      0.64129160	     12.91764825	     12.37720451	     -3.04753633	    -13.93727441	      2.99579209	     -4.47284811	      5.85140466	     30.28483337	    -16.36618926	    -12.96017281	    -67.79792286	     -4.87609781	     10.06436417	      7.20069298	      5.19532949	     10.40470048	      0.94725924
      3.90000000	     -8.65235409	     -7.98510662	      0.44985800	     -0.78586715	     -0.01893112	      0.64185447	     12.11699571	     12.21636330	     -2.35118704	    -13.48744337	      3.15016429	     -4.49561195	      5.67148005	     30.93505440	    -16.15028535	    -13.41855154	    -67.20845719	     -4.62280235	     10.15716738	      6.91673164	      5.06004027	     10.14889515	      1.58834101
      3.90500000	     -8.58718992	     -7.72824647	     -0.01821308	     -0.77924286	     -0.01831081	      0.64241415	     11.25830526	     12.09790919	     -1.59822325	    -13.01158800	      3.26363119	     -4.59802602	      5.39438629	     31.52139381	    -16.00373771	    -13.90127774	    -66.57258952	     -4.28553834	     10.21969103	      6.43342552	      4.88961441	      9.94546909	      2.17536086
      3.91000000	     -8.58463401	     -7.41474956	     -0.46622597	     -0.77268317	     -0.01779569	      0.64293187	     10.51463730	     11.88343938	     -1.00610273	    -12.59738168	      3.43530007	     -4.56212681	      5.28317815	     32.15499030	    -15.77140554	    -14.36369339	    -65.83389167	     -4.03733290	     10.23794138	      6.09047890	      4.78570967	      9.67299546	      2.76842213
      3.91500000	     -8.51685915	     -7.16223252	     -0.92116457	     -0.76618333	     -0.01733435	      0.64345170	      9.69776771	     11.72498497	     -0.34640239	    -12.16549434	      3.59056054	     -4.56977923	      5.12140212	     32.71738109	    -15.62635492	    -14.83757402	    -65.07046158	     -3.76872769	     10.24776853	      5.56015902	      4.59801189	      9.47195022	      3.39778201
